<svg xmlns="http://www.w3.org/2000/svg" id="Layer_2" data-name="Layer 2" viewBox="0 0 724.49 108.67"><defs><style> .cls-1 { fill: #0055f9; } .cls-1, .cls-2 { stroke-width: 0px; } .cls-2 { fill: #05092b; } </style></defs><g id="Layer_1-2" data-name="Layer 1"><g><g><polygon class="cls-1" points="115.28 101.53 115.28 54.49 68.24 54.49 115.28 101.53"></polygon><polygon class="cls-1" points="0 0 33.76 33.76 135.99 33.76 135.99 74.94 169.71 108.67 169.75 108.67 169.75 0 0 0"></polygon></g><path class="cls-2" d="M313.5,77.2c-2.9-5.22-4.35-11.22-4.35-17.98s1.45-12.73,4.35-17.91c2.9-5.18,7.02-9.22,12.38-12.12,5.36-2.9,11.55-4.35,18.57-4.35s13.21,1.45,18.57,4.35c5.36,2.9,9.48,6.94,12.38,12.12,2.9,5.18,4.35,11.15,4.35,17.91s-1.45,12.75-4.35,17.98c-2.9,5.22-7.02,9.28-12.38,12.18-5.36,2.9-11.54,4.35-18.57,4.35s-13.21-1.45-18.57-4.35c-5.36-2.9-9.48-6.96-12.38-12.18ZM344.45,81.61c6.5,0,11.68-2.02,15.54-6.06,3.86-4.04,5.8-9.48,5.8-16.33s-1.93-12.16-5.8-16.2c-3.86-4.04-9.04-6.06-15.54-6.06s-11.68,2.02-15.54,6.06c-3.86,4.04-5.79,9.44-5.79,16.2s1.93,12.29,5.79,16.33c3.86,4.04,9.04,6.06,15.54,6.06Z"></path><path class="cls-2" d="M451.47,25.64l14.62,59.13,12.38-59.13h20.68l11.99,59.13,15.01-59.13h13.96l-17.78,67.3h-21.99l-11.72-57.42-11.98,57.42h-21.73l-17.78-67.3h14.35Z"></path><path class="cls-2" d="M658.78,77.53c-2.99-5.18-4.48-11.24-4.48-18.17s1.49-13.02,4.48-18.24c2.99-5.22,7.02-9.24,12.12-12.05,5.09-2.81,10.8-4.21,17.12-4.21,5.36,0,9.92.9,13.7,2.7,3.77,1.8,6.8,4.24,9.09,7.31V.75h13.7v92.19h-13.04v-10.8c-2.28,3.51-5.4,6.32-9.35,8.43-3.95,2.11-8.65,3.16-14.09,3.16-6.32,0-12.03-1.41-17.12-4.21-5.09-2.81-9.13-6.8-12.12-11.98ZM689.72,81.61c6.32,0,11.44-2.06,15.34-6.19,3.91-4.13,5.86-9.48,5.86-16.07s-1.95-12.07-5.86-16.2c-3.91-4.13-9.02-6.19-15.34-6.19s-11.59,2.06-15.54,6.19c-3.95,4.13-5.93,9.53-5.93,16.2s1.98,11.94,5.93,16.07c3.95,4.13,9.13,6.19,15.54,6.19Z"></path><path class="cls-2" d="M544.89,77.53c-2.99-5.18-4.48-11.24-4.48-18.17s1.49-13.02,4.48-18.24c2.99-5.22,7.02-9.24,12.12-12.05,5.09-2.81,10.8-4.21,17.12-4.21,5.36,0,9.92.9,13.7,2.7,3.77,1.8,6.8,4.24,9.09,7.31v-9.22h13.7v67.3h-13.04v-10.8c-2.28,3.51-5.4,6.32-9.35,8.43-3.95,2.11-8.65,3.16-14.09,3.16-6.32,0-12.03-1.41-17.12-4.21-5.09-2.81-9.13-6.8-12.12-11.98ZM575.84,81.61c6.32,0,11.44-2.06,15.34-6.19,3.91-4.13,5.86-9.48,5.86-16.07s-1.95-12.07-5.86-16.2c-3.91-4.13-9.02-6.19-15.34-6.19s-11.59,2.06-15.54,6.19c-3.95,4.13-5.93,9.53-5.93,16.2s1.98,11.94,5.93,16.07c3.95,4.13,9.13,6.19,15.54,6.19Z"></path><path class="cls-2" d="M430.32,25.64h-19.07c-7.2,0-12.67,1.84-16.4,5.53-3.73,3.69-5.6,9.13-5.6,16.33v45.44h13.7v-55.05h15.12l12.25-12.25Z"></path><polygon class="cls-2" points="263.21 13.92 295.5 13.92 308.67 .75 249.12 .75 249.12 92.94 263.21 92.94 263.21 52.9 291.63 52.9 304.67 39.87 263.21 39.87 263.21 13.92"></polygon><path class="cls-2" d="M660.94,25.64h-19.07c-7.2,0-12.67,1.84-16.4,5.53-3.73,3.69-5.6,9.13-5.6,16.33v45.44h13.7v-55.05h15.12l12.25-12.25Z"></path></g></g></svg>