<svg xmlns="http://www.w3.org/2000/svg" id="b" data-name="Layer 2" viewBox="0 0 874.66 125.07"><defs><style> .d { fill: #0055f9; } .e { fill: #05092b; } </style></defs><g id="c" data-name="Layer 1"><g><g><polygon class="d" points="132.68 116.86 132.68 62.71 78.54 62.71 132.68 116.86"></polygon><polygon class="d" points="0 0 38.86 38.86 156.52 38.86 156.52 86.26 195.33 125.07 195.38 125.07 195.38 0 0 0"></polygon></g><path class="e" d="M360.83,88.86c-3.33-6.01-5-12.91-5-20.69s1.67-14.65,5-20.61c3.33-5.96,8.08-10.61,14.25-13.95,6.17-3.33,13.29-5,21.37-5s15.21,1.67,21.37,5c6.16,3.33,10.91,7.98,14.25,13.95,3.33,5.96,5,12.83,5,20.61s-1.67,14.68-5,20.69c-3.33,6.01-8.08,10.69-14.25,14.02-6.16,3.34-13.29,5-21.37,5s-15.21-1.67-21.37-5c-6.16-3.33-10.91-8.01-14.25-14.02ZM396.45,93.93c7.48,0,13.44-2.32,17.89-6.97,4.45-4.65,6.67-10.91,6.67-18.8s-2.22-14-6.67-18.64c-4.45-4.65-10.41-6.97-17.89-6.97s-13.44,2.32-17.89,6.97c-4.45,4.65-6.67,10.86-6.67,18.64s2.22,14.15,6.67,18.8c4.45,4.65,10.41,6.97,17.89,6.97Z"></path><path class="e" d="M519.62,29.51l16.83,68.06,14.25-68.06h23.8l13.79,68.06,17.28-68.06h16.07l-20.46,77.46h-25.31l-13.49-66.09-13.79,66.09h-25.01l-20.46-77.46h16.52Z"></path><path class="e" d="M495.27,29.51h-21.95c-8.29,0-14.58,2.12-18.87,6.37-4.29,4.24-6.44,10.51-6.44,18.8v52.29h15.76v-63.36h17.4l14.1-14.1Z"></path><polygon class="e" points="302.94 16.02 340.11 16.02 355.27 .87 286.72 .87 286.72 106.97 302.94 106.97 302.94 60.89 335.66 60.89 350.66 45.88 302.94 45.88 302.94 16.02"></polygon><g><path class="d" d="M658.65,29.17h-22.15l14.22,14.22h17.56v63.92h15.9v-52.76c0-8.36-2.17-14.68-6.5-18.96-4.33-4.28-10.68-6.42-19.04-6.42Z"></path><path class="d" d="M736.2,94.16c-7.54,0-13.56-2.34-18.04-7.03-4.49-4.69-6.73-11.01-6.73-18.96s2.24-14.12,6.73-18.81c4.48-4.69,10.5-7.03,18.04-7.03,3.99,0,7.54.68,10.68,1.99l10.96-10.96s-.05-.03-.08-.05c-6.22-3.36-13.41-5.05-21.56-5.05s-15.34,1.68-21.56,5.05c-6.22,3.36-11.01,8.05-14.37,14.07-3.36,6.01-5.05,12.95-5.05,20.8s1.68,14.81,5.05,20.87c3.36,6.07,8.16,10.78,14.37,14.14,6.22,3.36,13.4,5.05,21.56,5.05s15.34-1.68,21.56-5.05c.03-.02.05-.03.08-.05l-10.96-10.96c-3.14,1.31-6.69,1.99-10.68,1.99Z"></path><polygon class="d" points="732.26 59.55 732.26 76.94 743.37 76.94 743.37 72.62 736.8 72.62 736.8 59.55 732.26 59.55"></polygon><polygon class="d" points="754.84 70.34 761.67 70.34 761.67 66.03 754.84 66.03 754.84 63.86 762.42 63.86 762.42 59.55 750.3 59.55 750.3 76.94 762.67 76.94 762.67 72.62 754.84 72.62 754.84 70.34"></polygon><polygon class="d" points="769.59 59.55 769.59 63.86 774.32 63.86 774.32 76.94 778.86 76.94 778.86 63.86 783.59 63.86 783.59 59.55 769.59 59.55"></polygon></g><path class="e" d="M799.02,89.24c-3.44-5.96-5.15-12.93-5.15-20.92s1.72-14.98,5.15-20.99c3.44-6.01,8.08-10.64,13.95-13.87,5.86-3.23,12.43-4.85,19.7-4.85,6.16,0,11.42,1.04,15.76,3.11,4.34,2.07,7.83,4.88,10.46,8.41V.87h15.76v106.1h-15.01v-12.43c-2.63,4.04-6.21,7.28-10.76,9.7-4.55,2.42-9.95,3.64-16.22,3.64-7.28,0-13.84-1.62-19.7-4.85-5.86-3.23-10.51-7.83-13.95-13.79ZM834.64,93.93c7.28,0,13.16-2.37,17.66-7.12,4.5-4.75,6.75-10.91,6.75-18.49s-2.25-13.89-6.75-18.64c-4.5-4.75-10.38-7.12-17.66-7.12s-13.34,2.37-17.89,7.12c-4.55,4.75-6.82,10.96-6.82,18.64s2.27,13.74,6.82,18.49c4.55,4.75,10.51,7.12,17.89,7.12Z"></path></g></g></svg>